<mxfile host="app.diagrams.net" modified="2023-06-21T10:26:29.971Z" agent="Mozilla/5.0 (Windows NT 10.0; Win64; x64) AppleWebKit/537.36 (KHTML, like Gecko) Chrome/114.0.0.0 Safari/537.36" etag="3xDlNIewqs8g2NO-Iupg" version="21.4.0" type="device">
  <diagram name="Страница 1" id="IB78WyWkT8wojsQqFQ42">
    <mxGraphModel dx="1791" dy="745" grid="0" gridSize="10" guides="1" tooltips="1" connect="1" arrows="1" fold="1" page="1" pageScale="1" pageWidth="827" pageHeight="1169" math="0" shadow="0">
      <root>
        <mxCell id="0" />
        <mxCell id="1" parent="0" />
        <mxCell id="7gAWgCazmwPMILkJhMNL-6" value="Пользователи" style="swimlane;childLayout=stackLayout;horizontal=1;startSize=30;horizontalStack=0;rounded=1;fontSize=14;fontStyle=0;strokeWidth=2;resizeParent=0;resizeLast=1;shadow=0;dashed=0;align=center;arcSize=17;whiteSpace=wrap;html=1;" vertex="1" parent="1">
          <mxGeometry x="335" y="130" width="160" height="120" as="geometry" />
        </mxCell>
        <mxCell id="7gAWgCazmwPMILkJhMNL-7" value="# id&lt;br&gt;+ Имя&lt;br&gt;+ Пароль&lt;br&gt;+ Электронная почта&lt;br&gt;+ Баланс пользователя" style="align=left;strokeColor=none;fillColor=none;spacingLeft=4;fontSize=12;verticalAlign=top;resizable=0;rotatable=0;part=1;html=1;" vertex="1" parent="7gAWgCazmwPMILkJhMNL-6">
          <mxGeometry y="30" width="160" height="90" as="geometry" />
        </mxCell>
        <mxCell id="7gAWgCazmwPMILkJhMNL-11" value="Станции" style="swimlane;childLayout=stackLayout;horizontal=1;startSize=30;horizontalStack=0;rounded=1;fontSize=14;fontStyle=0;strokeWidth=2;resizeParent=0;resizeLast=1;shadow=0;dashed=0;align=center;arcSize=17;whiteSpace=wrap;html=1;" vertex="1" parent="1">
          <mxGeometry x="570" y="155" width="160" height="70" as="geometry" />
        </mxCell>
        <mxCell id="7gAWgCazmwPMILkJhMNL-12" value="# id&lt;br&gt;+ Имя" style="align=left;strokeColor=none;fillColor=none;spacingLeft=4;fontSize=12;verticalAlign=top;resizable=0;rotatable=0;part=1;html=1;" vertex="1" parent="7gAWgCazmwPMILkJhMNL-11">
          <mxGeometry y="30" width="160" height="40" as="geometry" />
        </mxCell>
        <mxCell id="7gAWgCazmwPMILkJhMNL-18" value="" style="edgeStyle=orthogonalEdgeStyle;rounded=0;orthogonalLoop=1;jettySize=auto;html=1;startArrow=ERoneToMany;startFill=0;endArrow=ERzeroToMany;endFill=0;" edge="1" parent="1" source="7gAWgCazmwPMILkJhMNL-13" target="7gAWgCazmwPMILkJhMNL-7">
          <mxGeometry relative="1" as="geometry" />
        </mxCell>
        <mxCell id="7gAWgCazmwPMILkJhMNL-13" value="Билеты" style="swimlane;childLayout=stackLayout;horizontal=1;startSize=30;horizontalStack=0;rounded=1;fontSize=14;fontStyle=0;strokeWidth=2;resizeParent=0;resizeLast=1;shadow=0;dashed=0;align=center;arcSize=17;whiteSpace=wrap;html=1;" vertex="1" parent="1">
          <mxGeometry x="320" y="310" width="190" height="90" as="geometry" />
        </mxCell>
        <mxCell id="7gAWgCazmwPMILkJhMNL-14" value="# id&lt;br&gt;+ Идентификатор пользователя&lt;br&gt;+ Идентификатор маршрута" style="align=left;strokeColor=none;fillColor=none;spacingLeft=4;fontSize=12;verticalAlign=top;resizable=0;rotatable=0;part=1;html=1;" vertex="1" parent="7gAWgCazmwPMILkJhMNL-13">
          <mxGeometry y="30" width="190" height="60" as="geometry" />
        </mxCell>
        <mxCell id="7gAWgCazmwPMILkJhMNL-15" value="Маршруты" style="swimlane;childLayout=stackLayout;horizontal=1;startSize=30;horizontalStack=0;rounded=1;fontSize=14;fontStyle=0;strokeWidth=2;resizeParent=0;resizeLast=1;shadow=0;dashed=0;align=center;arcSize=17;whiteSpace=wrap;html=1;" vertex="1" parent="1">
          <mxGeometry x="565" y="280" width="170" height="120" as="geometry" />
        </mxCell>
        <mxCell id="7gAWgCazmwPMILkJhMNL-16" value="# id&lt;br&gt;+ Название станции откуда&lt;br&gt;+ Название станции куда&lt;br&gt;+ Дата&lt;br&gt;+ Цена&lt;br&gt;" style="text;html=1;align=left;verticalAlign=top;resizable=0;points=[];autosize=1;strokeColor=none;fillColor=none;spacingLeft=4;" vertex="1" parent="7gAWgCazmwPMILkJhMNL-15">
          <mxGeometry y="30" width="170" height="90" as="geometry" />
        </mxCell>
        <mxCell id="7gAWgCazmwPMILkJhMNL-19" value="" style="edgeStyle=orthogonalEdgeStyle;rounded=0;orthogonalLoop=1;jettySize=auto;html=1;entryX=-0.001;entryY=0.5;entryDx=0;entryDy=0;startArrow=ERoneToMany;startFill=0;endArrow=ERzeroToMany;endFill=0;entryPerimeter=0;exitX=1;exitY=0.25;exitDx=0;exitDy=0;" edge="1" parent="1" source="7gAWgCazmwPMILkJhMNL-14" target="7gAWgCazmwPMILkJhMNL-16">
          <mxGeometry relative="1" as="geometry" />
        </mxCell>
        <mxCell id="7gAWgCazmwPMILkJhMNL-20" value="" style="edgeStyle=orthogonalEdgeStyle;rounded=0;orthogonalLoop=1;jettySize=auto;html=1;startArrow=ERoneToMany;startFill=0;endArrow=ERzeroToMany;endFill=0;exitX=0.5;exitY=0;exitDx=0;exitDy=0;" edge="1" parent="1" source="7gAWgCazmwPMILkJhMNL-15" target="7gAWgCazmwPMILkJhMNL-12">
          <mxGeometry relative="1" as="geometry" />
        </mxCell>
      </root>
    </mxGraphModel>
  </diagram>
</mxfile>
